<svg xmlns="http://www.w3.org/2000/svg" width="128" height="128" fill="none" viewBox="0 0 128 128">
    <g filter="url(#filter0_i)">
        <path fill="#29353A" d="M63 .577a2 2 0 012 0l53.426 30.846c.618.357 1 1.017 1 1.732v61.69c0 .715-.382 1.375-1 1.732L65 127.423a2.001 2.001 0 01-2 0L9.574 96.577a2 2 0 01-1-1.732v-61.69a2 2 0 011-1.732L63 .577z"/>
    </g>
    <path fill="silver" d="M43.88 74c-.216 0-.324-.108-.324-.324V51.104c0-.216.108-.324.324-.324h2.772c.216 0 .324.108.324.324v22.572c0 .216-.108.324-.324.324H43.88zm6.599-6.912c0-.216.096-.324.288-.324h2.808c.096 0 .168.036.216.108.072.048.108.12.108.216v1.008c0 .792.12 1.404.36 1.836.24.432.684.744 1.332.936.648.192 1.608.288 2.88.288h.216c1.272 0 2.232-.096 2.88-.288.648-.192 1.092-.504 1.332-.936.24-.432.36-1.044.36-1.836v-.9c0-.624-.072-1.104-.216-1.44-.144-.36-.42-.648-.828-.864-.384-.24-.972-.444-1.764-.612l-4.788-1.08c-1.848-.408-3.156-1.044-3.924-1.908-.744-.888-1.116-2.184-1.116-3.888v-.72c0-2.136.588-3.696 1.764-4.68 1.2-1.008 3.228-1.512 6.084-1.512h.216c2.832 0 4.836.504 6.012 1.512 1.2.984 1.8 2.544 1.8 4.68v1.008c0 .096-.036.18-.108.252-.048.048-.12.072-.216.072h-2.772c-.216 0-.324-.108-.324-.324v-1.008c0-.792-.12-1.404-.36-1.836-.24-.432-.672-.744-1.296-.936-.624-.192-1.536-.288-2.736-.288h-.216c-1.224 0-2.148.096-2.772.288-.624.192-1.056.504-1.296.936-.24.432-.36 1.044-.36 1.836v.72c0 .576.072 1.032.216 1.368.144.336.408.612.792.828.384.192.96.384 1.728.576l4.788 1.044c1.896.432 3.216 1.092 3.96 1.98.768.888 1.152 2.22 1.152 3.996v.9c0 2.136-.6 3.708-1.8 4.716-1.2.984-3.264 1.476-6.192 1.476h-.216c-2.928 0-4.992-.492-6.192-1.476-1.2-1.008-1.8-2.58-1.8-4.716v-1.008zm36.63 6.696c0 .144-.109.216-.325.216h-3.348c-.168 0-.3-.084-.396-.252L77.352 63.2l-3.78 4.5v5.976c0 .216-.108.324-.324.324h-2.772c-.216 0-.324-.108-.324-.324V51.104c0-.216.108-.324.324-.324h2.772c.216 0 .324.108.324.324v11.808l9.216-11.952a.59.59 0 01.432-.18h3.312c.12 0 .204.048.252.144.048.072.024.156-.072.252l-7.02 9.144 7.344 13.284.072.18z"/>
    <defs>
        <filter id="filter0_i" width="110.851" height="127.381" x="8.574" y=".309" color-interpolation-filters="sRGB" filterUnits="userSpaceOnUse">
            <feFlood flood-opacity="0" result="BackgroundImageFix"/>
            <feBlend in="SourceGraphic" in2="BackgroundImageFix" result="shape"/>
            <feColorMatrix in="SourceAlpha" result="hardAlpha" values="0 0 0 0 0 0 0 0 0 0 0 0 0 0 0 0 0 0 127 0"/>
            <feOffset dy="1"/>
            <feComposite in2="hardAlpha" k2="-1" k3="1" operator="arithmetic"/>
            <feColorMatrix values="0 0 0 0 1 0 0 0 0 1 0 0 0 0 1 0 0 0 0.1 0"/>
            <feBlend in2="shape" result="effect1_innerShadow"/>
        </filter>
    </defs>
</svg>